<svg width="75" height="126" viewBox="0 0 75 126" fill="none" xmlns="http://www.w3.org/2000/svg">
<rect width="66.4932" height="57.7516" transform="matrix(0.993203 -0.116393 0.155125 0.987895 0 48.6104)" fill="#FFC000"/>
<path d="M39.2598 26.8438L39.1387 90.5996H34.5371L34.3555 26.8438H39.2598ZM33.3262 111.488C33.3262 110.398 33.6895 109.47 34.416 108.703C35.1426 107.936 36.0911 107.553 37.2617 107.553C38.4323 107.553 39.401 107.936 40.168 108.703C40.9349 109.47 41.3184 110.398 41.3184 111.488C41.3184 112.578 40.9349 113.507 40.168 114.273C39.401 115.04 38.4323 115.424 37.2617 115.424C36.0911 115.424 35.1426 115.04 34.416 114.273C33.6895 113.507 33.3262 112.578 33.3262 111.488Z" fill="black"/>
</svg>
