<svg xmlns="http://www.w3.org/2000/svg" width="44" height="44" viewBox="0 0 44 44" fill="none">
    <path d="M22 44C34.1503 44 44 34.1503 44 22C44 9.84974 34.1503 0 22 0C9.84974 0 0 9.84974 0 22C0 34.1503 9.84974 44 22 44Z" fill="url(#paint0_linear_3258_12651)"/>
    <path fill-rule="evenodd" clip-rule="evenodd" d="M9.95837 21.7679C16.3718 18.9737 20.6485 17.1315 22.7883 16.2415C28.8979 13.7003 30.1674 13.2589 30.9949 13.2443C31.1769 13.2411 31.5838 13.2862 31.8474 13.5001C32.07 13.6807 32.1312 13.9246 32.1605 14.0959C32.1898 14.2671 32.2263 14.6571 32.1973 14.9619C31.8662 18.4407 30.4336 26.8826 29.7048 30.7788C29.3964 32.4275 28.7892 32.9802 28.2013 33.0343C26.9237 33.1519 25.9536 32.19 24.7162 31.3789C22.7799 30.1096 21.686 29.3195 19.8065 28.0809C17.6344 26.6496 19.0425 25.8629 20.2804 24.5772C20.6043 24.2407 26.2334 19.1206 26.3423 18.6562C26.356 18.5981 26.3686 18.3815 26.24 18.2672C26.1113 18.1529 25.9215 18.192 25.7845 18.2231C25.5903 18.2671 22.497 20.3117 16.5047 24.3566C15.6267 24.9595 14.8315 25.2533 14.1189 25.2379C13.3334 25.2209 11.8224 24.7937 10.6991 24.4286C9.32136 23.9808 8.22636 23.744 8.32171 22.9834C8.37137 22.5872 8.91692 22.1821 9.95837 21.7679Z" fill="black"/>
    <defs>
        <linearGradient id="paint0_linear_3258_12651" x1="22" y1="0" x2="22" y2="43.6737" gradientUnits="userSpaceOnUse">
            <stop stop-color="white"/>
            <stop offset="1" stop-color="white"/>
        </linearGradient>
    </defs>
</svg>
