<svg width="44" height="44" viewBox="0 0 44 44" fill="none" xmlns="http://www.w3.org/2000/svg">
<rect width="44" height="44" rx="22" fill="white"/>
<path d="M33.5469 16.5312C33.1719 18.125 29.7969 22.9062 29.7969 22.9062C29.5156 23.375 29.375 23.6094 29.7969 24.125C29.9844 24.3594 33.5 27.7344 34.0156 29.3281C34.25 30.125 33.875 30.5 33.0781 30.5H30.3125C29.2812 30.5 28.9531 29.7031 27.0781 27.8281C25.4375 26.2344 24.7344 26 24.3125 26C23.4688 26 23.6094 26.3281 23.6094 29.4688C23.6094 30.125 23.375 30.5 21.6406 30.5C18.7344 30.5 15.5 28.7656 13.2031 25.4844C9.78125 20.6562 8.84375 17.0469 8.84375 16.2969C8.84375 15.875 9.03125 15.5 9.78125 15.5H12.5469C13.25 15.5 13.5312 15.8281 13.8125 16.5781C15.1719 20.5156 17.4219 23.9844 18.3594 23.9844C18.7344 23.9844 18.875 23.7969 18.875 22.9062V18.8281C18.7812 16.9531 17.7969 16.8125 17.7969 16.1562C17.7969 15.8281 18.0312 15.5 18.5 15.5H22.8125C23.4219 15.5 23.6094 15.8281 23.6094 16.5312V22.0156C23.6094 22.5781 23.8906 22.8125 24.0312 22.8125C24.4062 22.8125 24.6875 22.5781 25.3438 21.9688C27.3125 19.7188 28.7188 16.2969 28.7188 16.2969C28.9062 15.875 29.2344 15.5 29.9375 15.5H32.7031C33.5469 15.5 33.6875 15.9688 33.5469 16.5312Z" fill="black"/>
</svg>
