<svg width="44" height="44" viewBox="0 0 44 44" fill="none" xmlns="http://www.w3.org/2000/svg">
<rect width="44" height="44" rx="22" fill="white"/>
<path d="M27.5405 12H22.7774C18.0975 12 14.364 14.2667 14.364 18.6667C14.364 21.3067 16.0507 23.2533 19.4761 24.2133L13.0835 31.5733C12.8749 31.8142 13.0835 32 13.4176 32H16.3835C16.6344 32 16.8021 31.9467 16.8853 31.8142L22.8865 24.5H24.591L24.5801 31.8142C24.5801 31.8942 24.7055 32 24.8719 32H27.6659C27.9168 32 28 31.92 28 31.7875V12.2667C28 12.08 27.8323 12 27.5405 12ZM24.591 22.8333H22.5456C20.5002 22.8333 17.773 21.8667 17.773 18.6667C17.773 15.3325 19.997 13.6667 22.5456 13.6667H24.591V22.8333Z" fill="black"/>
</svg>
